# xmcd
#
# Track frame offsets: 
#        150
#        15145
#        31977
#        44852
#        57527
#        71905
#        88065
#        99032
#        122110
#        134067
#        149139
#        160111
#        176965
#        194657
#        209580
#        223452
#        234077
#        248445
#        262217
#        277397
#
# Disc length: 3889 seconds
#
# Revision: 2
# Processed by: cddbd v1.5.2PL0 Copyright (c) Steve Scherf et al.
# Submitted via: ExactAudioCopy v0.99pb5
#
DISCID=4a0f2f14
DTITLE=Hermann Lammers Meyer - The Last Country Song - From Texas To T
DTITLE=ennessee
DYEAR=1996
DGENRE=Country
TTITLE0=First Of May (with Lois Johnson)
TTITLE1=Fool On A Stool
TTITLE2=The Part Where I Cry (with Willie Nelson)
TTITLE3=(Won't You) Please Send In The Clowns
TTITLE4=Slow Down (with Joyce Hawthorne)
TTITLE5=Home In San Antone (with Johnny Bush and Maryann Price)
TTITLE6=Marie Jolie Coeur
TTITLE7=Should I Fight Back Again
TTITLE8=Banjo's Going Home (featuring Sonny Osborne)
TTITLE9=Texas Me (with Johnny Bush)
TTITLE10=Heartcore Country
TTITLE11=Sad Songs And Walzes (with Clay Blaker)
TTITLE12=Jesse Walker
TTITLE13=Dead Man (with Leroy Preston)
TTITLE14=Stories We Could Tell
TTITLE15=Shakin' The Blues
TTITLE16=If You Don't Leave Me (with Michael Ballew)
TTITLE17=A Little Bit Of Everything In Texas (with Willie Nelson and Nor
TTITLE17=ma Jean)
TTITLE18=Gone A Million Miles
TTITLE19=The Last Country Song (with Johnny Bush)
EXTD=
EXTT0=
EXTT1=
EXTT2=
EXTT3=
EXTT4=
EXTT5=
EXTT6=
EXTT7=
EXTT8=
EXTT9=
EXTT10=
EXTT11=
EXTT12=
EXTT13=
EXTT14=
EXTT15=
EXTT16=
EXTT17=
EXTT18=
EXTT19=
PLAYORDER=
